PathFileType	4	(X/Y/Z)	TVC_58_BWA_04_walk_RCNL2025.trc
DataRate	CameraRate	NumFrames	NumMarkers	Units	OrigDataRate	OrigDataStartFrame	OrigNumFrames
100	100	10	27	mm	100	383	437
Frame#	Time	R_Shoulder			L_Shoulder			C7			J_Notch			R_Elbow			L_Elbow			R_Wrist			L_Wrist			R_Asis			L_Asis			R_Psis			L_Psis			Sacral			Thoracic			Sternum			R_Thigh_Lateral			R_Knee_Lateral			R_Shank_Lateral			R_Ankle_Lateral			R_Heel			R_Toe			L_Thigh_Lateral			L_Knee_Lateral			L_Shank_Lateral			L_Ankle_Lateral			L_Heel			L_Toe		
		X1	Y1	Z1	X2	Y2	Z2	X3	Y3	Z3	X4	Y4	Z4	X5	Y5	Z5	X6	Y6	Z6	X7	Y7	Z7	X8	Y8	Z8	X9	Y9	Z9	X10	Y10	Z10	X11	Y11	Z11	X12	Y12	Z12	X13	Y13	Z13	X14	Y14	Z14	X15	Y15	Z15	X16	Y16	Z16	X17	Y17	Z17	X18	Y18	Z18	X19	Y19	Z19	X20	Y20	Z20	X21	Y21	Z21	X22	Y22	Z22	X23	Y23	Z23	X24	Y24	Z24	X25	Y25	Z25	X26	Y26	Z26	X27	Y27	Z27
383	3.82000000	1486.335205	1312.701294	25.957458	1503.729980	1333.305908	-329.175934	1437.799438	1394.424072	-159.078476	1578.382080	1292.651245	-148.085266	1531.392700	994.878357	89.955109	1426.939453	1018.638062	-401.649445	1704.938232	812.270660	93.681854	1498.490723	784.908600	-461.631714	1589.474731	887.794617	-8.892787	1618.270874	888.106812	-323.742371	1367.789429	926.369385	-132.823975	1378.692139	913.014832	-240.520020	1373.240784	919.692108	-186.671997	1381.927124	1089.135254	-175.486328	1677.323120	1062.195679	-158.129501	1532.185547	665.280762	53.489799	1463.613892	444.533173	-45.325237	1377.570801	252.625687	-13.138307	1286.510864	75.191887	-123.356377	1231.330078	82.520088	-174.438217	1405.511475	44.278782	-163.964767	1577.926880	634.758362	-391.579102	1709.278931	472.953766	-275.454468	1732.572266	284.663422	-319.810730	1752.671631	62.319496	-219.610168	1706.003906	50.272732	-170.069626	1888.166626	74.444397	-184.601059
384	3.83000000	1493.726196	1311.741211	25.922558	1511.664551	1332.011475	-329.301361	1445.365234	1393.452026	-159.293320	1586.177856	1291.934448	-148.067734	1537.815063	993.605713	90.039482	1436.162720	1017.155823	-402.003845	1711.968567	811.485626	93.591576	1506.538940	783.434875	-462.358505	1598.610352	886.619080	-8.471448	1627.367676	887.210815	-323.477936	1376.793823	925.166382	-132.137756	1387.555786	911.816772	-239.811615	1382.174805	918.491577	-185.974686	1390.391846	1087.938721	-175.265411	1685.991211	1061.587036	-157.876846	1540.415283	664.036438	53.729507	1469.676025	443.828430	-45.289974	1380.940552	253.052444	-12.856842	1287.228760	76.577423	-123.046715	1232.148682	84.841263	-174.228241	1405.836182	44.341980	-163.728149	1587.506348	633.604614	-389.999054	1716.844849	471.629761	-273.139221	1735.991699	281.244385	-316.394165	1754.513306	60.756866	-216.222809	1707.301392	49.235535	-167.317673	1889.689697	69.774078	-179.206909
385	3.84000000	1501.197876	1310.986206	25.840124	1519.523193	1330.851196	-329.475677	1452.936768	1392.632568	-159.545776	1593.990479	1291.409790	-148.121368	1544.114868	992.507446	90.057396	1445.380005	1015.766113	-402.292389	1718.568787	810.615143	93.570103	1514.671143	782.089294	-463.024506	1607.980469	885.546082	-8.199282	1636.555176	886.637451	-323.268372	1385.965332	924.143188	-131.216858	1396.437744	910.771606	-238.921448	1391.201538	917.457397	-185.069153	1398.903442	1086.882324	-174.972610	1694.767578	1061.203979	-157.731537	1548.756836	662.961182	53.971691	1476.070068	443.200073	-45.276035	1384.568359	253.579865	-12.610307	1288.059326	78.220886	-122.692520	1233.109009	87.481651	-174.011566	1406.251953	44.427059	-163.447540	1597.712646	632.995178	-388.619629	1724.605469	470.525208	-270.888031	1739.555298	278.673615	-313.352570	1756.132935	59.462231	-213.444489	1708.301025	48.484413	-165.278152	1891.060669	65.184242	-174.288391
386	3.85000000	1508.750732	1310.463867	25.716307	1527.301025	1329.855469	-329.689636	1460.512573	1391.982056	-159.828369	1601.815796	1291.096191	-148.238556	1550.303955	991.616455	90.004677	1454.574707	1014.504150	-402.503113	1724.728760	809.670654	93.623669	1522.892395	780.904358	-463.608948	1617.561646	884.615601	-8.097563	1645.807739	886.430908	-323.111908	1395.289062	923.325867	-130.072998	1405.328003	909.918701	-237.869873	1400.308533	916.622284	-183.971436	1407.454102	1085.984497	-174.613617	1703.630493	1061.086304	-157.687881	1557.259766	662.075684	54.200813	1482.864624	442.665283	-45.270378	1388.493896	254.248993	-12.415350	1289.024902	80.166031	-122.307426	1234.268799	90.496109	-173.813431	1406.780640	44.531742	-163.116379	1608.381470	632.962463	-387.476471	1732.598755	469.721222	-268.735504	1744.174194	277.534424	-310.741425	1757.685425	58.479744	-211.287933	1709.186157	48.071190	-163.918167	1892.441528	60.866741	-170.015884
387	3.86000000	1516.382446	1310.195679	25.557413	1534.995239	1329.051880	-329.933563	1468.090576	1391.512573	-160.133636	1609.648926	1291.006836	-148.410629	1556.393433	990.960999	89.879051	1463.731079	1013.402832	-402.626190	1730.441956	808.663757	93.758503	1531.207825	779.909058	-464.092896	1627.320068	883.868652	-8.179997	1655.093384	886.621704	-323.006531	1404.746338	922.732422	-128.728180	1414.219727	909.293274	-236.687271	1409.483032	916.012848	-182.707726	1416.035278	1085.259399	-174.197327	1712.552490	1061.267822	-157.736694	1565.971436	661.396179	54.404499	1490.137817	442.236603	-45.238804	1392.763672	255.120285	-12.264590	1290.159424	82.457787	-121.900124	1235.704346	93.941780	-173.657394	1407.443237	44.648785	-162.727814	1619.342651	633.502441	-386.585541	1740.840454	469.266815	-266.710907	1750.809448	278.179108	-308.511108	1759.244873	57.810448	-209.726593	1710.066772	48.001633	-163.164490	1893.888672	56.962566	-166.508179
388	3.87000000	1524.087402	1310.195679	25.369570	1542.605835	1328.462769	-330.197845	1475.668701	1391.230957	-160.454346	1617.484741	1291.149048	-148.628143	1562.393555	990.562317	89.680328	1472.834106	1012.490906	-402.654297	1735.705383	807.605438	93.980816	1539.622803	779.127258	-464.459763	1637.212891	883.343933	-8.450830	1664.377808	887.221680	-322.950195	1414.315796	922.371338	-127.214821	1423.109619	908.923340	-235.413132	1418.712708	915.647339	-181.313976	1424.638794	1084.716187	-173.735596	1721.500488	1061.772217	-157.865295	1574.930054	660.934387	54.577301	1497.971436	441.920441	-45.124462	1397.425049	256.261475	-12.118615	1291.510742	85.138725	-121.471245	1237.510620	97.873688	-173.560135	1408.255859	44.764835	-162.275818	1630.440308	634.570679	-385.943787	1749.304321	469.162964	-264.839844	1760.023315	280.422638	-306.502319	1760.820312	57.421486	-208.697693	1710.989990	48.239834	-162.912674	1895.375000	53.564632	-163.807159
389	3.88000000	1531.857300	1310.468628	25.158485	1550.135376	1328.104492	-330.473267	1483.244507	1391.138916	-160.783859	1625.318115	1291.522827	-148.881165	1568.313721	990.433411	89.410355	1481.869873	1011.791138	-402.583130	1740.520935	806.505829	94.296711	1548.142273	778.576447	-464.695999	1647.189453	883.074890	-8.903524	1673.628540	888.221619	-322.940277	1423.972900	922.240173	-125.575478	1431.998535	908.826294	-234.094345	1427.985718	915.533234	-179.834911	1433.256226	1084.358765	-173.242996	1730.438843	1062.609619	-158.057602	1584.156738	660.698059	54.723831	1506.442993	441.716064	-44.851391	1402.510864	257.732452	-11.912393	1293.142944	88.244865	-121.010658	1239.797974	102.339729	-173.525040	1409.227051	44.860088	-161.757339	1641.548828	636.085876	-385.530914	1757.907959	469.358643	-263.148895	1771.501099	283.439575	-304.535858	1762.379883	57.259911	-208.110977	1711.957520	48.720154	-163.040649	1896.831421	50.723965	-161.869629
390	3.89000000	1539.680420	1311.010010	24.929379	1557.589722	1327.985352	-330.751556	1490.815430	1391.232666	-161.116302	1633.143921	1292.120972	-149.159531	1574.162354	990.577576	89.073029	1490.825928	1011.318481	-402.411530	1744.895203	805.373566	94.712063	1556.771484	778.266357	-464.791718	1657.193359	883.086243	-9.520290	1682.819336	889.590942	-322.972443	1433.690430	922.325012	-123.861969	1440.890137	909.007263	-232.782654	1437.290283	915.666138	-178.322311	1441.878906	1084.185791	-172.736191	1739.332031	1063.773804	-158.294373	1593.652832	660.690979	54.860317	1515.619141	441.615295	-44.333305	1408.029053	259.576172	-11.569034	1295.135742	91.801033	-120.496162	1242.686646	107.375801	-173.536072	1410.355225	44.909538	-161.174637	1652.580200	637.941345	-385.312622	1766.509399	469.760376	-261.669342	1783.944214	286.035065	-302.568695	1763.873535	57.264980	-207.861389	1712.941895	49.361008	-163.422089	1898.183838	48.452599	-160.580673
391	3.90000000	1547.541870	1311.804688	24.686987	1564.977295	1328.105591	-331.025574	1498.379395	1391.502808	-161.446838	1640.957397	1292.929321	-149.453094	1579.946777	990.987793	88.674133	1499.691284	1011.078857	-402.141785	1748.839783	804.215790	95.232384	1565.515259	778.198273	-464.741119	1667.165161	883.390564	-10.272648	1691.933350	891.280029	-323.039398	1443.437256	922.600891	-122.133652	1449.789917	909.457825	-231.531876	1446.613586	916.029358	-176.832764	1450.497803	1084.191040	-172.233109	1748.148438	1065.240723	-158.553482	1603.399292	660.913513	55.014183	1525.550903	441.602478	-43.485825	1413.966064	261.819214	-11.012280	1297.583008	95.816917	-119.894157	1246.299683	113.000633	-173.554108	1411.627808	44.885990	-160.537430	1663.479736	640.019897	-385.245148	1774.921631	470.251221	-260.436554	1795.525635	287.151184	-300.786743	1765.248657	57.377705	-207.842194	1713.901123	50.078030	-163.937317	1899.371826	46.725773	-159.784714
392	3.91000000	1555.424561	1312.828369	24.435707	1572.310059	1328.456421	-331.289520	1505.934326	1391.935425	-161.771683	1648.753784	1293.926758	-149.751984	1585.673096	991.646790	88.221214	1508.457520	1011.068176	-401.779388	1752.371521	803.037567	95.862568	1574.378113	778.364899	-464.542831	1677.044678	883.985718	-11.123001	1700.963257	893.224915	-323.129974	1453.179199	923.032837	-120.454834	1458.703125	910.156372	-230.394943	1455.941162	916.594604	-175.424889	1459.103760	1084.363770	-171.752106	1756.863037	1066.969238	-158.810654	1613.359375	661.361511	55.221252	1536.269897	441.655029	-42.239162	1420.302856	264.477631	-10.176116	1300.588867	100.284317	-119.162064	1250.753296	119.210747	-173.516815	1413.024780	44.765079	-159.863571	1674.215210	642.208252	-385.280945	1782.939575	470.712830	-259.484100	1804.647949	286.326416	-299.517090	1766.461060	57.547516	-207.956223	1714.790161	50.795189	-164.482071	1900.353394	45.489037	-159.320648
